# xmcd
#
# Track frame offsets:
#	150
#	12750
#	23823
#	37858
#	46515
#	54306
#	64973
#	73830
#	85444
#	96039
#	106497
#	121017
#	130996
#	141524
#	150888
#	161550
#	172078
#	186097
#	195308
#	204233
#	216415
#	226652
#	235267
#
# Disc length: 3275 seconds
#
# Revision: 4
# Processed by: cddbd v1.5.2PL0 Copyright (c) Steve Scherf et al.
# Submitted via: audiograbber 1.83.01
#
DISCID=2e0cc917
DTITLE=Johnny Horton - Six Classic Albums Plus Bonus Singles  [CD3)
DYEAR=2015
DGENRE=Oldies
TTITLE0=Johnny Freedom
TTITLE1=Jim Bridger
TTITLE2=Comanche (The Brave Horse)
TTITLE3=Snow Shoe Thompson
TTITLE4=O'Leary's Cow
TTITLE5=John Paul Jones
TTITLE6=Young Abe Lincoln
TTITLE7=The Battle Of Bull Run
TTITLE8=The Sinking Of The Reuben James
TTITLE9=Johnny Reb
TTITLE10=Sink The Bismarck
TTITLE11=Honky Tonk Man
TTITLE12=Goodbye, Lonesome, Hello Baby Doll
TTITLE13=I'm Coming Home
TTITLE14=I Got A Hole In My Pirouge
TTITLE15=She Knows Why
TTITLE16=They'll Never Take Her Love From Me
TTITLE17=Old Stew Foot
TTITLE18=I'm A One Woman Man
TTITLE19=Sleepy Eyed John
TTITLE20=Everytime I'm Kissing You
TTITLE21=The Wild One
TTITLE22=Honky Tonk Hardwood Floor
EXTD=
EXTT0=
EXTT1=
EXTT2=
EXTT3=
EXTT4=
EXTT5=
EXTT6=
EXTT7=
EXTT8=
EXTT9=
EXTT10=
EXTT11=
EXTT12=
EXTT13=
EXTT14=
EXTT15=
EXTT16=
EXTT17=
EXTT18=
EXTT19=
EXTT20=
EXTT21=
EXTT22=
PLAYORDER=
